PathFileType	4	(X/Y/Z)	pose_F01_0-96.trc
DataRate	CameraRate	NumFrames	NumMarkers	Units	OrigDataRate	OrigDataStartFrame	OrigNumFrames
30	30	7	21	m	30	60	96
Frame#	Time	CHip			RHip			RKnee			RAnkle			RBigToe			RSmallToe			RHeel			LHip			LKnee			LAnkle			LBigToe			LSmallToe			LHeel			Neck			Nose			RShoulder			RElbow			RWrist			LShoulder			LElbow			LWrist			
		X1	Y1	Z1	X2	Y2	Z2	X3	Y3	Z3	X4	Y4	Z4	X5	Y5	Z5	X6	Y6	Z6	X7	Y7	Z7	X8	Y8	Z8	X9	Y9	Z9	X10	Y10	Z10	X11	Y11	Z11	X12	Y12	Z12	X13	Y13	Z13	X14	Y14	Z14	X15	Y15	Z15	X16	Y16	Z16	X17	Y17	Z17	X18	Y18	Z18	X19	Y19	Z19	X20	Y20	Z20	X21	Y21	Z21	
60	2.0	-0.20049310698186185	1.8876722986478303	-0.5323770369414469	-0.20714907829334586	1.8846081063006705	-0.4721681640409391	-0.19701606988559975	1.741344413400968	-0.467947858687066	-0.18236016321360207	1.6044633557776282	-0.4756168138173363	-0.21142567163565523	1.5688095212886206	-0.435703855066717	-0.2055928912022454	1.5753132777453074	-0.41074980652966475	-0.18128434739136304	1.5940334413004023	-0.48888560463133945	-0.19284169946309124	1.8893910857914513	-0.5921346442700693	-0.19600304183962597	1.746562751234228	-0.575563607332087	-0.18553793117553638	1.5932527054295738	-0.5809180140568414	-0.2092436246795062	1.547336149876858	-0.5601006603917448	-0.2020554796461427	1.5521198343522171	-0.5894987500606079	-0.1764539081174809	1.5825689686830988	-0.5761839235585486	-0.19209945539665516	2.049147961091318	-0.5459437841719929	-0.22025380668090225	2.0964540444168693	-0.4931316178920989	-0.20491524562905916	2.0444181148020424	-0.4637384118550956	-0.22833821268148896	1.9930834333904979	-0.39852039292787494	-0.21162302630516552	2.0444186562537383	-0.434465603235713	-0.17908452733296945	2.054557761741674	-0.6341206077522173	-0.17787359457958635	1.976127748832478	-0.6598170797659513	-0.21072338868557006	1.9034877566906339	-0.637875771125752
61	2.033333333333333	-0.19876761769531903	1.8853544782847076	-0.5344830627123787	-0.20735568260384507	1.8823651315937908	-0.472083620520763	-0.19699228611590677	1.743988110579433	-0.46841799740981815	-0.1823563809665302	1.6046259335730175	-0.4756338143862371	-0.2134378468963352	1.56599520302932	-0.43290012705419495	-0.20765665571294625	1.575728526450757	-0.40831269760708583	-0.1784197061532693	1.5943466535771629	-0.48773874293541525	-0.19107540256502545	1.8871476436875354	-0.5942083061960628	-0.19374246629444258	1.7507405445491375	-0.5785029502816287	-0.18502501233341664	1.5959813263273688	-0.5820490472435182	-0.20799431224702036	1.5470331440821434	-0.5657619257496396	-0.1984192120979664	1.5536829559804282	-0.5978832186561952	-0.17505046005111483	1.5852163407457718	-0.5740246273814107	-0.18903227597853497	2.050700977362957	-0.5539996286968605	-0.21826858179850467	2.0991022557953016	-0.49642148741292097	-0.2019343712258649	2.0461582733770314	-0.47202135046783067	-0.22907593277906926	1.9994026691001612	-0.39483024286850427	-0.21062007622294782	2.055329068689544	-0.4511074615940601	-0.17494513480181711	2.0548069880740463	-0.6387509593950369	-0.17642480909699573	1.9750531121148187	-0.6650906513130852	-0.20688653958630737	1.9047899287825754	-0.6456169358601104
62	2.066666666666667	-0.1996093323322181	1.8879673771170504	-0.5380686191825844	-0.20654737689231054	1.885407962630609	-0.47791608012144016	-0.19788453720226654	1.74402133730995	-0.4716163133368528	-0.18442106049467535	1.6044005999689859	-0.47345604495054894	-0.21337915138710756	1.5662527812299292	-0.43289401622358153	-0.2057447770470125	1.5760025086590832	-0.4104197480585507	-0.18244700482232262	1.594482391377734	-0.4921451068806025	-0.1910061763433533	1.8897319297693573	-0.5946897728750895	-0.19432498965922432	1.7479931274249159	-0.5816745630417716	-0.18505890007140513	1.5960830068399217	-0.5820382760137323	-0.2069434271890751	1.5490162602151165	-0.5630441064658686	-0.20079446410336857	1.5522835079234014	-0.5950115205410268	-0.17734020142948606	1.5866013741680893	-0.5716622434646116	-0.1898453120334949	2.0508505818061344	-0.5571160605560015	-0.21622732151248153	2.1007592841576463	-0.4992961917733445	-0.19800319667705318	2.047276859416438	-0.4764113383389993	-0.2299889987133493	2.006768396299864	-0.3994120435148159	-0.21151889310514205	2.059912973120558	-0.4553636243793167	-0.17569536670068725	2.0560202055591823	-0.6415968996784776	-0.17824799517661366	1.9739339457055063	-0.6714104108384086	-0.20592229986112615	1.901149485113005	-0.6505202941850975
63	2.1	-0.19948409757962174	1.8851414028708682	-0.5375335818415944	-0.20616381131096453	1.8821070961768434	-0.4772121243545307	-0.19738410001993736	1.745131419239241	-0.47224341761829247	-0.18449254275449342	1.6055184076924909	-0.4732621757708923	-0.2122050552285989	1.5674908813363095	-0.43015989654781367	-0.20759085054407875	1.5756696454237533	-0.4082492887321455	-0.18154716573969118	1.595496989215901	-0.4886354126491977	-0.19176999212465848	1.8868789943959403	-0.5971674757454886	-0.19411887406599895	1.7492539209745182	-0.5820865735334714	-0.18303014314568614	1.5961791505228966	-0.5843146907627342	-0.20781255066773888	1.5484358478733982	-0.5663323826964298	-0.20084623577964547	1.5522603126125585	-0.5950956426112622	-0.17617594942794218	1.5866592330009808	-0.5771560813050992	-0.18987137826151515	2.050823948826906	-0.5571921138894647	-0.21225186236083074	2.103092967853627	-0.5033487641717513	-0.1991097250760165	2.0452709024975704	-0.4797030882946391	-0.22887703348519928	2.0082574060430676	-0.39611989481315596	-0.21046537279033767	2.062097545933103	-0.4604453457372595	-0.17781789806477405	2.0548736251096518	-0.6396044855421983	-0.1781117176127308	1.975207677695197	-0.6713440202957875	-0.2054912334517797	1.9035520568506992	-0.6509280432016672
64	2.1333333333333333	-0.20003642366017438	1.8876378887392244	-0.5410752955688541	-0.20398150677865148	1.8859041490137218	-0.48012581800266624	-0.19767311832710302	1.7451879004892354	-0.47195371621391685	-0.1823269624080574	1.6042081068032423	-0.47566023345463276	-0.21240665113191076	1.5687818576562622	-0.42984381312836173	-0.2075870122308303	1.575719584256899	-0.4082836920874121	-0.1814858749440787	1.5924296932664617	-0.4883948794163302	-0.19153848201775545	1.8906179797597775	-0.5978029567954294	-0.19394750411898953	1.7505129899125778	-0.5823251387188726	-0.1850075136419812	1.5959652785591876	-0.582085088331153	-0.20811075309232194	1.5470221791174625	-0.5656138016057339	-0.20275351552285023	1.5507395341022507	-0.5931068975768784	-0.1752238496602423	1.5839351078918862	-0.5735799559844794	-0.18985854538456345	2.0508386149968367	-0.5571819666120598	-0.21303408628625614	2.1067744656050635	-0.5068789380571215	-0.1990694244434883	2.0453095649113613	-0.47975063676661706	-0.22870390766684068	2.0119794227617613	-0.39679173703805354	-0.21031264392051233	2.0651044423111213	-0.46102188333445926	-0.1778564876389479	2.056097140387194	-0.6400300329398865	-0.17827022427949205	1.9739783410650578	-0.6714023827191378	-0.20591228266397807	1.9011409334133447	-0.6505018878824633
65	2.1666666666666665	-0.199586710817624	1.8866191252755566	-0.5377888493315091	-0.2081710011408474	1.883540876994248	-0.4753265753334618	-0.19584910099302413	1.7466489675224124	-0.47427942827488195	-0.18432291815664983	1.6042409471677581	-0.47351303014186763	-0.2144638051786992	1.5664745086828291	-0.42745070049708467	-0.20762434597582496	1.5757184040268184	-0.4082519652241996	-0.18166671520694716	1.593225435819844	-0.4884121476441226	-0.1917160299798537	1.8894789471207434	-0.5975286770046947	-0.19442734455062202	1.7493644394981185	-0.5817938741140601	-0.1852555396575652	1.5946007685799473	-0.5814792332530507	-0.21023359951682813	1.5473182510114556	-0.5634537683094688	-0.20301305300273773	1.5520687112753067	-0.5927888617129861	-0.17548179840633135	1.5825751291412373	-0.572982891718488	-0.1889854440094515	2.0507398906708625	-0.554085404538243	-0.21295557576984153	2.1082464638613905	-0.5158187020817818	-0.1981400021773243	2.0453688438184647	-0.47641226741572823	-0.22872842093252022	2.0133299523446775	-0.39720197827666714	-0.20718135719823041	2.0672091919484603	-0.45996376505344083	-0.17700056452185442	2.056006746344658	-0.6370298566660196	-0.17718663423664321	1.9764264412458503	-0.6681385279851234	-0.20491489919239544	1.902194961976597	-0.647469308599405
66	2.2	-0.19821803708602415	1.8900827294146088	-0.5349939209198694	-0.20486721995622734	1.8869071432972497	-0.47476799066281467	-0.19654213706529264	1.7461947834001654	-0.46909461356346366	-0.1833634064104918	1.6042359348251576	-0.4701836625633858	-0.21547829191185666	1.5664489235557293	-0.43073879435903445	-0.20756964111486334	1.574994610504889	-0.40852800728268424	-0.18062839460298508	1.5928725557604333	-0.48499131141309665	-0.19254918544029517	1.89167000886934	-0.5925338678483272	-0.19348832863679707	1.7493459313059927	-0.5786262968206494	-0.1841094647723913	1.5960483846320912	-0.5787073792886431	-0.2079200134918645	1.5488487722729116	-0.5661545507233757	-0.2020235540782614	1.5521990424705567	-0.5896550964804489	-0.1752687245062474	1.5840092238676675	-0.5733338144238683	-0.18893937504227706	2.050735444399715	-0.5540013161905736	-0.2129428887265482	2.1092277549399605	-0.5157849791154638	-0.19910297234612945	2.044995490442804	-0.47123382579871764	-0.22858814387542037	2.01369415998011	-0.39730532568940247	-0.20433745616481155	2.0660359235387875	-0.4580539331688145	-0.1748910846871031	2.0560655486491077	-0.6391934131215906	-0.17846803962196162	1.9775159671612879	-0.6630746370689612	-0.2068311651774069	1.9047473097312073	-0.6455410554161847
